<?xml version="1.0" encoding="UTF-8" standalone="no"?>
<svg
   width="166.46mm"
   height="59.951mm"
   version="1.1"
   viewBox="0 0 166.46 59.951"
   id="svg63"
   sodipodi:docname="cyberdeck2.svg"
   inkscape:version="1.2.1 (9c6d41e4, 2022-07-14)"
   inkscape:export-filename="cyberdeck2.png"
   inkscape:export-xdpi="96"
   inkscape:export-ydpi="96"
   xmlns:inkscape="http://www.inkscape.org/namespaces/inkscape"
   xmlns:sodipodi="http://sodipodi.sourceforge.net/DTD/sodipodi-0.dtd"
   xmlns="http://www.w3.org/2000/svg"
   xmlns:svg="http://www.w3.org/2000/svg">
  <defs
     id="defs67">
    <inkscape:path-effect
       effect="spiro"
       id="path-effect180"
       is_visible="true"
       lpeversion="1" />
    <inkscape:path-effect
       effect="bspline"
       id="path-effect361"
       is_visible="true"
       lpeversion="1"
       weight="33.333333"
       steps="2"
       helper_size="0"
       apply_no_weight="true"
       apply_with_weight="true"
       only_selected="false" />
    <inkscape:path-effect
       effect="bspline"
       id="path-effect357"
       is_visible="true"
       lpeversion="1"
       weight="33.333333"
       steps="2"
       helper_size="0"
       apply_no_weight="true"
       apply_with_weight="true"
       only_selected="false" />
    <inkscape:path-effect
       effect="bspline"
       id="path-effect353"
       is_visible="true"
       lpeversion="1"
       weight="33.333333"
       steps="2"
       helper_size="0"
       apply_no_weight="true"
       apply_with_weight="true"
       only_selected="false" />
    <inkscape:path-effect
       effect="bspline"
       id="path-effect349"
       is_visible="true"
       lpeversion="1"
       weight="33.333333"
       steps="2"
       helper_size="0"
       apply_no_weight="true"
       apply_with_weight="true"
       only_selected="false" />
    <inkscape:path-effect
       effect="bspline"
       id="path-effect345"
       is_visible="true"
       lpeversion="1"
       weight="33.333333"
       steps="2"
       helper_size="0"
       apply_no_weight="true"
       apply_with_weight="true"
       only_selected="false" />
    <inkscape:path-effect
       effect="bspline"
       id="path-effect287"
       is_visible="true"
       lpeversion="1"
       weight="33.333333"
       steps="2"
       helper_size="0"
       apply_no_weight="true"
       apply_with_weight="true"
       only_selected="false" />
    <inkscape:path-effect
       effect="bspline"
       id="path-effect283"
       is_visible="true"
       lpeversion="1"
       weight="33.333333"
       steps="2"
       helper_size="0"
       apply_no_weight="true"
       apply_with_weight="true"
       only_selected="false" />
    <inkscape:path-effect
       effect="bspline"
       id="path-effect183"
       is_visible="true"
       lpeversion="1"
       weight="33.333333"
       steps="2"
       helper_size="0"
       apply_no_weight="true"
       apply_with_weight="true"
       only_selected="false" />
  </defs>
  <sodipodi:namedview
     id="namedview65"
     pagecolor="#ffffff"
     bordercolor="#666666"
     borderopacity="1.0"
     inkscape:showpageshadow="2"
     inkscape:pageopacity="0.0"
     inkscape:pagecheckerboard="0"
     inkscape:deskcolor="#d1d1d1"
     inkscape:document-units="mm"
     showgrid="false"
     inkscape:zoom="4.3411017"
     inkscape:cx="328.37286"
     inkscape:cy="87.07467"
     inkscape:window-width="3376"
     inkscape:window-height="1238"
     inkscape:window-x="1112"
     inkscape:window-y="25"
     inkscape:window-maximized="0"
     inkscape:current-layer="svg63" />
  <path
     style="fill:#ffd5d5;stroke:#ff8080;stroke-width:0.264583px;stroke-linecap:butt;stroke-linejoin:miter;stroke-opacity:1"
     d="m 5.3634618,30.29137 c 0,0 5.6682042,2.316038 5.6682042,2.316038 0,0 28.401968,-1.218967 28.401968,-1.218967 0,0 1.584659,-1.706557 1.584659,-1.706557 0,0 1.21897,0.914228 1.21897,0.914228 -4.246074,4.266389 -8.49215,8.53278 -10.503292,10.73718 -2.011141,2.2044 -1.787669,2.346611 -1.127536,1.87923 0.660134,-0.467381 1.757184,-1.544116 2.996558,-2.326317 1.239374,-0.782202 2.62069,-1.269725 4.002188,-1.757312 4.713345,-4.489868 9.426697,-8.979744 11.72251,-11.326101 2.295812,-2.346357 2.173732,-2.549826 2.051836,-2.752988 0,0 -3.413112,0.121897 -3.413112,0.121897 0,0 -3.778804,3.96165 -3.778804,3.96165 0,0 -1.158019,-4.510186 -1.158019,-4.510186 0,0 -2.925525,1.218969 -2.925525,1.218969 0,0 0.914226,3.717854 0.914226,3.717854 0,0 -4.083545,-2.072246 -4.083545,-2.072246 0,0 -0.731382,0.670433 -0.731382,0.670433 0,0 -14.68857,0.243792 -14.68857,0.243792 0,0 15.541848,-6.765275 15.541848,-6.765275 0,0 2.437937,0.365691 2.437937,0.365691 0,0 3.16932,-1.401814 3.16932,-1.401814 0,0 -3.717854,-2.437937 -3.717854,-2.437937 -9.121949,3.494377 -18.243755,6.988699 -23.840853,9.010164 -5.5970987,2.021465 -7.6694858,2.570038 -9.7417322,3.118574 z"
     id="path181"
     inkscape:path-effect="#path-effect183"
     inkscape:original-d="m 5.3634618,30.29137 5.6682042,2.316038 28.401968,-1.218967 1.584659,-1.706557 1.21897,0.914228 c 0,0 -8.491884,8.533045 -12.738222,12.799168 0.223745,0.142481 0.447217,0.284692 0.67043,0.426641 1.09736,-1.076513 2.19441,-2.153248 3.291216,-3.230266 1.381792,-0.487334 4.144494,-1.462762 4.144494,-1.462762 0,0 9.426956,-8.979472 14.140034,-13.469604 -0.121634,-0.202901 -0.365688,-0.609485 -0.365688,-0.609485 l -3.413112,0.121897 -3.778804,3.96165 -1.158019,-4.510186 -2.925525,1.218969 0.914226,3.717854 -4.083545,-2.072246 -0.731382,0.670433 -14.68857,0.243792 15.541848,-6.765275 2.437937,0.365691 3.16932,-1.401814 -3.717854,-2.437937 c 0,0 -18.243633,6.989018 -27.365846,10.48313 -2.0720228,0.548812 -6.2167392,1.645608 -6.2167392,1.645608 z"
     sodipodi:nodetypes="ccccccccccccccccccccccccc" />
  <path
     id="path281"
     style="fill:#ffd5d5;stroke:#ff8080;stroke-width:0.264583px;stroke-linecap:butt;stroke-linejoin:miter;stroke-opacity:1"
     d="m 64.849272,14.932422 -3.901054,4.205428 -0.975135,0.06098 -14.9934,14.32264 3.779098,2.316138 12.982153,-7.130831 -2.986898,3.656624 2.072742,1.46296 10.665499,-1.767334 0.853695,-2.011247 -8.16746,0.975135 0.548803,-1.280026 7.374744,-0.609782 1.219047,-1.828312 -6.643522,0.06098 c -0.446958,-0.914224 -0.223321,-0.914416 0.406363,-1.036302 0.629681,-0.121885 8.065247,-0.304403 7.94335,0.244133 l 0.06114,0.243883 -4.266406,8.288899 2.377116,1.950269 3.413228,-5.729366 12.85968,3.779097 2.559991,-1.401732 -1.036123,-1.46306 4.022864,-0.243526 12.798943,-3.779168 1.40198,-2.011244 -8.53265,-6.582379 -6.704686,10.787856 0.91423,1.645657 -3.900611,0.122193 -7.008874,-2.133203 10.056233,-2.56005 -1.828312,-2.072225 -15.359269,-0.7922 -0.731222,0.609265 L 65.092665,25.110616 63.6912,26.634554 C 63.386458,26.309496 63.081962,25.984827 62.076311,25.761222 61.07066,25.537617 59.36401,25.415445 57.65746,25.293551 l 6.094718,-5.485454 -0.365869,-1.88929 1.828312,-2.031401 c 0.365697,-0.406327 0.365662,-0.406331 0.243913,-0.497644 z m 36.934858,9.081077 3.29092,2.31603 c -3.23233,1.138166 -4.99083,1.805844 -6.826367,2.377086 z m -23.282462,2.803986 7.618657,0.304374 -7.4967,1.46296 -0.792717,-0.487826 z m -22.171256,0.771012 c 0.987614,-0.0024 1.69277,0.07967 1.266072,0.498677 -0.56893,0.558681 -3.149219,1.716741 -5.729366,2.87476 l 3.413229,-3.35225 c 0.360611,-0.01016 0.72086,-0.02039 1.050065,-0.02119 z"
     sodipodi:nodetypes="cccccccccccccccsccccccccccccccccccccccscccccccccccccccssccss" />
  <path
     style="fill:#ffd5d5;stroke:#ff8080;stroke-width:0.264583px;stroke-linecap:butt;stroke-linejoin:miter;stroke-opacity:1"
     d="m 135.85405,24.318423 c 0,0 -4.63208,6.460535 -4.63208,6.460535 0,0 0,0.609483 0,0.609483 0,0 -1.15802,1.828454 -1.15802,1.828454 0,0 2.13319,1.8894 2.13319,1.8894 0,0 3.53501,-4.814925 3.53501,-4.814925 0,0 25.11076,10.726923 25.11076,10.726923 0,0 -0.48759,-1.645608 -0.48759,-1.645608 0,0 -16.27323,-8.045193 -16.27323,-8.045193 0,0 0,-0.853276 0,-0.853276 0,0 -3.41312,-1.706557 -3.41312,-1.706557 4.14449,-1.68624 8.28913,-3.372538 10.66605,-4.530532 2.37692,-1.157995 2.9864,-1.787785 3.38254,-2.295637 0.39614,-0.507852 0.57904,-0.893965 0.76188,-1.279972 0,0 -17.73599,6.826224 -17.73599,6.826224 0,0 1.7675,-2.986473 1.7675,-2.986473 0,0 -3.6569,-0.182846 -3.6569,-0.182846 z"
     id="path285"
     inkscape:path-effect="#path-effect287"
     inkscape:original-d="m 135.85405,24.318423 -4.63208,6.460535 v 0.609483 l -1.15802,1.828454 2.13319,1.8894 3.53501,-4.814925 25.11076,10.726923 -0.48759,-1.645608 -16.27323,-8.045193 v -0.853276 l -3.41312,-1.706557 c 0,0 8.28926,-3.372215 12.43348,-5.05872 0.60976,-0.629548 1.21924,-1.259336 1.82846,-1.889401 0.18311,-0.38575 0.54853,-1.15802 0.54853,-1.15802 l -17.73599,6.826224 1.7675,-2.986473 z"
     sodipodi:nodetypes="ccccccccccccccccc" />
  <path
     style="fill:#ffd5d5;stroke:#ff8080;stroke-width:0.264583px;stroke-linecap:butt;stroke-linejoin:miter;stroke-opacity:1"
     d="m 112.04353,25.354554 c -1.07677,1.218978 -3.23027,3.656898 -5.38378,6.094836 0,0 2.0113,1.462762 2.0113,1.462762 0,0 10.60503,-1.706557 10.60503,-1.706557 0,0 1.03612,-2.194142 1.03612,-2.194142 0,0 -8.28899,0.975175 -8.28899,0.975175 0,0 0.97518,-1.21897 0.97518,-1.21897 0,0 6.94812,-0.609484 6.94812,-0.609484 0,0 1.46276,-1.645607 1.46276,-1.645607 0,0 -6.82622,0 -6.82622,0 0,0 0.48759,-1.218968 0.48759,-1.218968 0,0 4.69302,0.182843 4.69302,0.182843 0,0 3.29122,0.426641 3.29122,0.426641 0,0 1.15802,-1.828453 1.15802,-1.828453 -3.69754,0.02032 -7.39481,0.04063 -9.24371,0.05079 -1.8489,0.01016 -1.8489,0.01016 -2.92566,1.229133 z"
     id="path343"
     inkscape:path-effect="#path-effect345"
     inkscape:original-d="m 113.12029,24.135576 c -2.15325,2.438202 -6.46054,7.313814 -6.46054,7.313814 l 2.0113,1.462762 10.60503,-1.706557 1.03612,-2.194142 -8.28899,0.975175 0.97518,-1.21897 6.94812,-0.609484 1.46276,-1.645607 h -6.82622 l 0.48759,-1.218968 4.69302,0.182843 3.29122,0.426641 1.15802,-1.828453 c 0,0 -7.39481,0.0409 -11.09261,0.06095 2.6e-4,2.63e-4 0,-4e-6 0,-4e-6 z"
     sodipodi:nodetypes="sccccccccccccccs" />
  <path
     style="fill:#ffd5d5;stroke:#ff8080;stroke-width:0.264583px;stroke-linecap:butt;stroke-linejoin:miter;stroke-opacity:1"
     d="m 130.48729,23.845098 c 0,0 -10.10881,7.859502 -10.10881,7.859502 0,0 1.40434,2.624387 1.40434,2.624387 0,0 7.86474,2.437059 7.86474,2.437059 0,0 2.15035,-0.679327 2.15035,-0.679327 0,0 -7.85577,-4.229582 -7.85577,-4.229582 0,0 5.84863,-5.839113 5.84863,-5.839113 0,0 2.49647,0.438575 2.49647,0.438575 0,0 -1.79995,-2.611501 -1.79995,-2.611501 z"
     id="path347"
     inkscape:path-effect="#path-effect349"
     inkscape:original-d="m 130.48729,23.845098 -10.10881,7.859502 1.40434,2.624387 7.86474,2.437059 2.15035,-0.679327 -7.85577,-4.229582 5.84863,-5.839113 2.49647,0.438575 z"
     sodipodi:nodetypes="ccccccccc" />
  <path
     style="fill:none;stroke-width:0.264583"
     d="M 38.824148,18.711168 C 29.31684,25.097558 18.265598,29.167959 6.8871726,30.474216 6.7044022,30.495198 6.5215515,30.51548 6.3386366,30.535163 -14.2622,32.751964 -35.614222,27.038894 -52.362903,14.84093 -69.111585,2.6429662 -81.098935,-15.921372 -85.337119,-36.20305 c -4.238184,-20.281678 -0.689819,-42.08819 9.74895,-59.986256 10.438769,-17.898064 27.667461,-31.720914 47.398822,-38.044044 19.7313603,-6.32314 41.780469,-5.09022 60.689095,3.38165 18.908626,8.47187 34.502755,24.10169 42.943007,43.024449 8.440253,18.922759 9.651519,40.963319 3.347819,60.700898 C 72.486874,-7.3887737 58.72837,9.8664487 40.896397,20.417724 31.44781,26.008504 20.913183,29.756 10.056491,31.388441"
     id="path178"
     inkscape:path-effect="#path-effect180"
     inkscape:original-d="M 38.824148,18.711168 C 28.178754,22.652764 17.533096,26.553464 6.8871726,30.474216 -3.758751,34.394965 6.5217465,30.515112 6.3386366,30.535163 6.1555267,30.555215 29.377407,23.790468 40.896397,20.417724 52.415384,17.044979 20.336724,27.731799 10.056491,31.388441" />
  <text
     xml:space="preserve"
     style="font-size:3.175px;fill:#ffd5d5;stroke:#ff8080;stroke-width:0.264583"
     x="3.6569057"
     y="18.772116"
     id="text124"><tspan
       sodipodi:role="line"
       id="tspan122"
       style="stroke-width:0.264583"
       x="3.6569057"
       y="18.772116">rerttt</tspan></text>
  <text
     xml:space="preserve"
     style="font-size:3.175px;fill:#ffd5d5;stroke:#ff8080;stroke-width:0.264583"
     x="6.5824304"
     y="12.067789"
     id="text178"><tspan
       sodipodi:role="line"
       id="tspan176"
       style="stroke-width:0.264583"
       x="6.5824304"
       y="12.067789">t</tspan></text>
</svg>
